STARTFONT 2.1
FONT HAN-GB2312
SIZE 10 72 72
FONTBOUNDINGBOX 5 10 0 0
STARTPROPERTIES 1
BITCOUNT 8
ENDPROPERTIES
CHARS 32
STARTCHAR  00A8
ENCODING  168
SWIDTH  1000 0
DWIDTH  3 0
BBX  5 2 -1 5
BITMAP
30FF00FF30
1060006010
ENDCHAR
STARTCHAR  00B1
ENCODING  177
SWIDTH  1000 0
DWIDTH  5 0
BBX  5 5 0 0
BITMAP
0000400000
0000FF0000
F0FFFFFFF0
0000C00000
F0FFFFFFF0
ENDCHAR
STARTCHAR  00B7
ENCODING  183
SWIDTH  1000 0
DWIDTH  3 0
BBX  2 2 0 2
BITMAP
FF30
E020
ENDCHAR
STARTCHAR  00E0
ENCODING  224
SWIDTH  1000 0
DWIDTH  6 0
BBX  6 8 0 0
BITMAP
004060000000
0030F0300000
000040400000
C0FFFFFFA000
20202040FF20
A0FFFFFFFF30
FF602020FF30
A0FFFFFFFF30
ENDCHAR
STARTCHAR  00E1
ENCODING  225
SWIDTH  1000 0
DWIDTH  6 0
BBX  6 8 0 0
BITMAP
000030601000
0000E0A00000
001060000000
C0FFFFFFA000
20202040FF20
A0FFFFFFFF30
FF602020FF30
A0FFFFFFFF30
ENDCHAR
STARTCHAR  00E8
ENCODING  232
SWIDTH  1000 0
DWIDTH  5 0
BBX  5 8 0 0
BITMAP
1060000000
00C0600000
0020400000
40E0FFFF30
E0FFFFFF30
F0FFFFFF30
C060000000
30F0F0F030
ENDCHAR
STARTCHAR  00E9
ENCODING  233
SWIDTH  1000 0
DWIDTH  5 0
BBX  5 8 0 0
BITMAP
0010601000
0080C00000
0060100000
40E0FFFF30
E0FFFFFF30
F0FFFFFF30
C060000000
30F0F0F030
ENDCHAR
STARTCHAR  00EA
ENCODING  234
SWIDTH  1000 0
DWIDTH  5 0
BBX  5 8 0 0
BITMAP
0060400000
40A0E03000
4020404000
40E0FFFF30
E0FFFFFF30
F0FFFFFF30
C060000000
30F0F0F030
ENDCHAR
STARTCHAR  00EC
ENCODING  236
SWIDTH  1000 0
DWIDTH  2 0
BBX  3 8 -1 0
BITMAP
304000
20E010
004010
00FF30
00FF30
00FF30
00FF30
00FF30
ENDCHAR
STARTCHAR  00ED
ENCODING  237
SWIDTH  1000 0
DWIDTH  2 0
BBX  3 8 -1 0
BITMAP
003060
00C060
006000
00FF30
00FF30
00FF30
00FF30
00FF30
ENDCHAR
STARTCHAR  00F2
ENCODING  242
SWIDTH  1000 0
DWIDTH  7 0
BBX  6 8 0 0
BITMAP
004060100000
0020E0A00000
000020800000
20C0F0F0C020
E0A03030C0C0
FF30000030FF
E0C03030A0E0
20C0F0F0C030
ENDCHAR
STARTCHAR  00F3
ENCODING  243
SWIDTH  1000 0
DWIDTH  7 0
BBX  6 8 0 0
BITMAP
000010604000
000080F03000
000060400000
20C0F0F0C020
E0A03030C0C0
FF30000030FF
E0C03030A0E0
20C0F0F0C030
ENDCHAR
STARTCHAR  00F7
ENCODING  247
SWIDTH  1000 0
DWIDTH  5 0
BBX  5 5 0 0
BITMAP
0000E01000
0000C01000
C0FFFFFFE0
0000E01000
0000C01000
ENDCHAR
STARTCHAR  00F9
ENCODING  249
SWIDTH  1000 0
DWIDTH  6 0
BBX  5 8 0 0
BITMAP
0060400000
0060FF2000
0000403000
FF300030FF
FF300030FF
FF300030FF
FF602040FF
80F0FFFFFF
ENDCHAR
STARTCHAR  00FA
ENCODING  250
SWIDTH  1000 0
DWIDTH  6 0
BBX  5 8 0 0
BITMAP
0000406010
0010F08000
0020600000
FF300030FF
FF300030FF
FF300030FF
FF602040FF
80F0FFFFFF
ENDCHAR
STARTCHAR  00FC
ENCODING  252
SWIDTH  1000 0
DWIDTH  6 0
BBX  5 7 0 0
BITMAP
00FF30FF30
30A010A040
C0C000A0E0
C0C000A0E0
C0C000A0E0
A0E020A0E0
40F0FFFFE0
ENDCHAR
STARTCHAR  02C7
ENCODING  711
SWIDTH  1000 0
DWIDTH  4 0
BBX  4 3 0 5
BITMAP
60203040
60C0E030
00403000
ENDCHAR
STARTCHAR  0394
ENCODING  916
SWIDTH  1000 0
DWIDTH  6 0
BBX  6 7 0 0
BITMAP
000030400000
0000A0A00000
001080F01000
006020A06000
00800040E000
30400000E040
A0808080C0A0
ENDCHAR
STARTCHAR  03A9
ENCODING  937
SWIDTH  1000 0
DWIDTH  8 0
BBX  7 8 0 0
BITMAP
00003060401000
0060A01030C040
10F020000060E0
20FF00000030FF
10FF20000060E0
0080A00020C040
20304060801060
30FFF060FFF0FF
ENDCHAR
STARTCHAR  03C0
ENCODING  960
SWIDTH  1000 0
DWIDTH  5 0
BBX  6 5 0 0
BITMAP
80F0FFFFF020
400060FF0000
001060FF0000
204040FF0020
C0E010C08010
ENDCHAR
STARTCHAR  2014
ENCODING  8212
SWIDTH  1000 0
DWIDTH  9 0
BBX  9 2 0 3
BITMAP
A0E0E0E0E0E0E0E040
C0FFFFFFFFFFFFFF60
ENDCHAR
STARTCHAR  2018
ENCODING  8216
SWIDTH  1000 0
DWIDTH  2 0
BBX  2 2 0 5
BITMAP
E0A0
FFC0
ENDCHAR
STARTCHAR  2019
ENCODING  8217
SWIDTH  1000 0
DWIDTH  2 0
BBX  2 3 0 4
BITMAP
C0FF
80F0
2040
ENDCHAR
STARTCHAR  220F
ENCODING  8719
SWIDTH  1000 0
DWIDTH  8 0
BBX  8 10 0 -2
BITMAP
6060606060606060
00FF00000000FF00
00FF00000000FF00
00FF00000000FF00
00FF00000000FF00
00FF00000000FF00
00FF00000000FF00
00FF00000000FF00
00FF00000000FF00
60FF60000060FF60
ENDCHAR
STARTCHAR  2211
ENCODING  8721
SWIDTH  1000 0
DWIDTH  7 0
BBX  7 10 0 -2
BITMAP
30FFFFFFFFE000
0080600030E010
0000C020004020
000030E0100000
00000080A00000
00000010C00000
00000080100000
00006020001030
0060300010A040
40FFFFFFFFE010
ENDCHAR
STARTCHAR  221A
ENCODING  8730
SWIDTH  1000 0
DWIDTH  5 0
BBX  7 8 -1 0
BITMAP
000000000040E0
0000000000A010
0000000010A000
00302000604000
0060A000A00000
0000E030600000
000080E0100000
000020A0000000
ENDCHAR
STARTCHAR  221E
ENCODING  8734
SWIDTH  1000 0
DWIDTH  7 0
BBX  6 4 1 1
BITMAP
80E030E0C000
6010C0603030
6030E0203030
80F030E0C000
ENDCHAR
STARTCHAR  222B
ENCODING  8747
SWIDTH  1000 0
DWIDTH  3 0
BBX  5 10 -1 -2
BITMAP
000020E080
0000A06080
0000E01000
0000FF0000
0000FF0000
0000FF0000
0000FF0000
0010E00000
6060A00000
80E0300000
ENDCHAR
STARTCHAR  2248
ENCODING  8776
SWIDTH  1000 0
DWIDTH  5 0
BBX  6 3 0 1
BITMAP
206060103020
A0FFFFFFFF20
601030604000
ENDCHAR
STARTCHAR  2260
ENCODING  8800
SWIDTH  1000 0
DWIDTH  5 0
BBX  5 7 0 -1
BITMAP
0000000010
0000006080
A0FFFFFFF0
0000C03000
A0FFFFFFF0
20A0000000
0000000000
ENDCHAR
STARTCHAR  2264
ENCODING  8804
SWIDTH  1000 0
DWIDTH  5 0
BBX  5 5 0 0
BITMAP
0000004080
30A0C08020
40A0A06010
00001060A0
A0FFFFFFF0
ENDCHAR
STARTCHAR  2265
ENCODING  8805
SWIDTH  1000 0
DWIDTH  5 0
BBX  5 5 0 0
BITMAP
6060100000
1060A0A060
003080C080
6080300000
A0FFFFFFF0
ENDCHAR
ENDFONT
